# xmcd
#
# Track frame offsets: 
#        150
#        35139
#        94278
#        134152
#        158780
#        193556
#        207609
#        223853
#        236468
#        250625
#        263447
#        276099
#        290475
#        303176
#        337670
#
# Disc length: 4682 seconds
#
# Revision: 2
# Processed by: cddbd v1.5.2PL0 Copyright (c) Steve Scherf et al.
# Submitted via: ExactAudioCopy v0.99pb5
#
DISCID=e012480f
DTITLE=Thelonius Monk - Thelonius Monk Trio
DYEAR=1954
DGENRE=Jazz
TTITLE0=Brilliant Corners
TTITLE1=Bar-Lue Bolivar Ba-Lues-Are
TTITLE2=Pannonica
TTITLE3=I Surrender Dear
TTITLE4=Bemsha Swing
TTITLE5=Little Rootie-Tootie
TTITLE6=Sweet and Lovely
TTITLE7=Bye-Ya
TTITLE8=Monk's Dream
TTITLE9=Trinkle Tinkle
TTITLE10=These Foolish Things
TTITLE11=Bemsha Swing
TTITLE12=Reflections
TTITLE13=Blue Monk
TTITLE14=Just a Gigolo
EXTD=
EXTT0=
EXTT1=
EXTT2=
EXTT3=
EXTT4=
EXTT5=
EXTT6=
EXTT7=
EXTT8=
EXTT9=
EXTT10=
EXTT11=
EXTT12=
EXTT13=
EXTT14=
PLAYORDER=
